<?xml version="1.0" encoding="UTF-8" standalone="no"?>
<svg width="144px" height="104px" viewBox="0 0 72 52" version="1.1" xmlns="http://www.w3.org/2000/svg" xmlns:xlink="http://www.w3.org/1999/xlink">
    <title>Couch by Johannes Thielen from the Noun Project</title>
    <g id="Page-1" stroke="none" stroke-width="1" fill="none" fill-rule="evenodd">
        <path d="M25.637,51.897 C25.325,51.897 25.032,51.805 24.762,51.621 C24.433,51.408 24.229,51.09 24.165,50.692 L23.389,51.027 C23.374,51.034 23.359,51.039 23.342,51.043 C23.329,51.045 23.317,51.047 23.303,51.047 L23.303,51.047 C23.302,51.046 23.301,51.046 23.301,51.047 C23.289,51.047 23.277,51.046 23.264,51.043 C23.249,51.041 23.235,51.037 23.221,51.031 L6.267,44.574 C6.005,45.06 5.454,45.171 4.625,44.903 C3.789,44.609 3.353,44.122 3.321,43.452 L0.803,42.493 C0.79,42.489 0.779,42.483 0.767,42.476 C0.74,42.46 0.717,42.439 0.701,42.414 C0.683,42.39 0.672,42.362 0.667,42.331 C0.664,42.318 0.664,42.304 0.664,42.29 L0.664,21.143 C0.664,21.129 0.664,21.114 0.667,21.1 L0.668,21.1 L0.668,21.1 C0.672,21.075 0.681,21.052 0.693,21.031 C0.699,21.022 0.705,21.013 0.712,21.005 L0.712,21.005 C0.712,21.005 0.712,21.005 0.713,21.004 C0.713,21.004 0.713,21.004 0.713,21.003 C0.725,20.989 0.738,20.977 0.754,20.966 L0.755,20.966 L0.755,20.966 C0.764,20.96 0.772,20.955 0.781,20.951 L6.287,18.075 C6.248,17.896 6.228,17.725 6.228,17.561 L6.228,17.537 C6.232,17.505 6.242,17.476 6.257,17.45 C6.271,17.426 6.29,17.404 6.314,17.387 C6.322,17.382 6.33,17.377 6.337,17.372 C14.566,12.631 22.046,9.358 28.569,7.644 C34.285,4.118 40.23,1.583 46.24,0.112 C46.25,0.11 46.259,0.108 46.268,0.107 C46.279,0.106 46.289,0.106 46.299,0.105 C48.004,0.105 48.971,0.223 50.063,0.425 C51.21,0.658 51.795,0.932 51.918,1.3 L71.195,8.801 C71.208,8.805 71.219,8.811 71.23,8.818 C71.244,8.826 71.257,8.836 71.268,8.847 L71.268,8.847 L71.269,8.847 C71.281,8.859 71.292,8.873 71.302,8.889 C71.314,8.909 71.323,8.93 71.328,8.953 C71.331,8.967 71.333,8.981 71.333,8.995 L71.333,8.995 L71.333,9.004 L71.333,30.176 C71.333,30.189 71.332,30.201 71.33,30.215 L71.33,30.215 C71.325,30.244 71.314,30.272 71.299,30.295 C71.282,30.321 71.26,30.344 71.232,30.361 C71.223,30.367 71.212,30.372 71.202,30.376 L70,30.896 C70.118,31.718 70.023,32.325 69.711,32.75 C69.464,33.086 69.083,33.292 68.581,33.362 C68.124,33.454 67.679,33.361 67.31,33.091 C67.017,32.854 66.824,32.634 66.754,32.298 L27.529,49.239 C27.744,50.716 27.251,51.592 26.063,51.843 C25.918,51.879 25.775,51.897 25.637,51.897 L25.637,51.897 Z M24.569,50.518 C24.593,50.85 24.736,51.103 24.996,51.27 C25.289,51.472 25.605,51.524 25.969,51.433 C26.567,51.306 27.315,50.958 27.127,49.412 L24.569,50.518 L24.569,50.518 Z M1.085,42.149 L23.09,50.53 L23.09,29.963 L1.085,21.446 L1.085,42.149 L1.085,42.149 Z M23.512,29.954 L23.512,50.515 L66.849,31.798 C66.852,31.796 66.856,31.795 66.86,31.793 L70.915,30.042 L70.915,9.32 L67.459,10.842 L67.459,22.172 C67.573,22.31 67.68,22.452 67.778,22.598 C67.791,22.616 67.801,22.637 67.808,22.659 L67.808,22.659 L67.808,22.659 C67.813,22.677 67.816,22.696 67.817,22.714 L67.922,25.809 C67.922,26.659 67.753,27.323 67.422,27.789 C67.414,27.8 67.406,27.809 67.399,27.818 L67.399,27.818 C67.39,27.827 67.381,27.835 67.372,27.841 C63.601,30.725 57.783,33.285 50.079,35.45 C48.002,36.974 44.584,38.726 39.634,40.805 C34.364,42.964 30.441,44.386 27.284,45.281 C27.273,45.284 27.263,45.287 27.252,45.288 C27.227,45.292 27.2,45.291 27.176,45.286 C27.148,45.279 27.12,45.266 27.097,45.249 C27.072,45.23 27.05,45.206 27.035,45.177 C27.025,45.156 27.017,45.134 27.014,45.11 L27.014,45.11 C27.013,45.098 27.012,45.087 27.012,45.076 L27.012,28.846 L27.012,28.837 L27.012,28.358 L23.512,29.954 L23.512,29.954 Z M27.432,40.711 L27.432,44.802 C30.528,43.908 34.366,42.511 39.472,40.418 C44.389,38.353 47.779,36.617 49.829,35.112 C50.086,34.708 50.216,34.127 50.216,33.383 L50.108,30.721 C45.928,34.14 38.303,37.499 27.432,40.711 L27.432,40.711 Z M3.77,43.623 C3.864,44.014 4.19,44.303 4.76,44.504 C5.515,44.749 5.768,44.58 5.869,44.423 L3.77,43.623 L3.77,43.623 Z M27.432,28.979 L27.432,40.271 C38.343,37.039 45.939,33.668 50.018,30.249 C49.197,29.13 47.865,28.261 45.954,27.597 C44.836,27.225 41.833,26.493 36.219,25.222 C36.215,25.222 36.212,25.221 36.209,25.22 L36.208,25.22 L36.208,25.219 C36.175,25.21 36.146,25.194 36.121,25.171 L27.432,28.979 L27.432,28.979 Z M50.519,30.452 L50.638,33.375 C50.638,33.988 50.555,34.506 50.392,34.925 C57.817,32.805 63.434,30.317 67.093,27.525 C67.364,27.13 67.5,26.556 67.5,25.818 L67.396,22.788 C67.379,22.765 67.363,22.741 67.345,22.717 C61.651,26.586 55.991,29.188 50.519,30.452 L50.519,30.452 Z M67.154,32.125 C67.183,32.399 67.311,32.547 67.569,32.757 C67.835,32.951 68.154,33.018 68.512,32.945 C68.915,32.888 69.193,32.743 69.373,32.498 C69.6,32.189 69.676,31.71 69.599,31.068 L67.154,32.125 L67.154,32.125 Z M36.727,24.905 C42.159,26.135 44.968,26.824 46.089,27.197 C48.113,27.901 49.522,28.834 50.393,30.048 C55.8,28.804 61.399,26.237 67.037,22.418 L67.037,22.327 C66.194,21.363 64.927,20.593 63.26,20.031 C62.032,19.622 58.673,18.805 53.544,17.67 C50.316,18.959 46.049,20.786 40.123,23.418 L36.727,24.905 L36.727,24.905 Z M1.385,21.109 L23.294,29.589 L26.678,28.045 L8.748,21.124 C8.742,21.122 8.737,21.12 8.732,21.118 C8.726,21.116 8.722,21.113 8.716,21.11 C8.659,21.079 8.601,21.049 8.54,21.018 C8.133,20.81 7.626,20.551 7.087,19.782 C6.773,19.31 6.546,18.881 6.405,18.485 L1.385,21.109 L1.385,21.109 Z M27.432,28.035 L27.432,28.519 L36.052,24.74 C36.037,21.448 35.762,17.872 35.233,14.106 C34.782,10.695 34.524,9.651 34.414,9.333 C32.204,10.805 28.743,12.571 24.124,14.586 C19.478,16.615 15.577,18.051 12.522,18.857 C13.071,20.225 13.401,21.639 13.532,22.519 L27.294,27.831 C27.306,27.835 27.317,27.841 27.329,27.848 C27.343,27.857 27.354,27.866 27.366,27.875 L27.366,27.876 C27.378,27.888 27.389,27.9 27.399,27.915 L27.399,27.915 C27.413,27.936 27.422,27.961 27.428,27.986 L27.428,27.986 C27.428,27.986 27.428,27.986 27.428,27.987 C27.43,27.998 27.432,28.009 27.432,28.021 L27.432,28.021 C27.432,28.021 27.432,28.021 27.432,28.022 C27.432,28.027 27.432,28.031 27.432,28.035 L27.432,28.035 Z M34.803,9.194 C34.992,9.715 35.245,10.98 35.651,14.049 C36.172,17.763 36.449,21.296 36.473,24.556 L39.952,23.032 C45.839,20.418 50.092,18.596 53.315,17.307 C53.308,14.96 53.127,12.592 52.937,10.087 C52.856,9.023 52.774,7.948 52.705,6.861 C52.52,3.959 51.975,2.29 51.718,1.777 C50.706,2.78 48.334,4.105 44.486,5.818 C40.499,7.598 37.245,8.733 34.803,9.194 L34.803,9.194 Z M8.909,20.735 L13.076,22.343 C12.922,21.433 12.581,20.081 12.043,18.8 C12.036,18.785 12.031,18.77 12.028,18.755 C12.025,18.741 12.024,18.727 12.024,18.713 C12.022,18.695 11.97,18.38 10.486,18.077 C9.425,17.877 8.172,17.775 6.662,17.765 C6.719,18.266 6.974,18.85 7.436,19.544 C7.912,20.223 8.347,20.446 8.732,20.642 C8.794,20.675 8.853,20.705 8.909,20.735 L8.909,20.735 Z M53.736,17.28 C58.821,18.407 62.159,19.219 63.392,19.631 C64.936,20.151 66.157,20.849 67.036,21.713 L67.036,10.849 L52.994,5.396 C53.048,5.853 53.093,6.334 53.125,6.834 C53.193,7.919 53.275,8.993 53.356,10.055 C53.548,12.559 53.728,14.927 53.736,17.28 L53.736,17.28 Z M7.217,17.353 C8.51,17.381 9.612,17.484 10.568,17.664 C11.598,17.874 12.186,18.131 12.378,18.46 C15.416,17.661 19.31,16.229 23.955,14.201 C28.578,12.184 32.029,10.422 34.216,8.959 C34.114,8.843 33.785,8.62 32.724,8.403 C31.556,8.17 30.196,8.05 28.683,8.049 C22.369,9.707 15.152,12.835 7.217,17.353 L7.217,17.353 Z M52.933,4.92 L67.243,10.477 L70.576,9.01 L52.213,1.865 C52.479,2.501 52.746,3.585 52.933,4.92 L52.933,4.92 Z M29.389,7.637 C30.649,7.67 31.795,7.788 32.807,7.99 C33.85,8.202 34.439,8.464 34.621,8.8 C37.04,8.358 40.299,7.226 44.312,5.433 C48.177,3.713 50.593,2.356 51.498,1.397 C51.426,1.296 51.137,1.071 49.984,0.836 C48.923,0.64 47.981,0.525 46.321,0.524 C40.569,1.935 34.877,4.327 29.389,7.637 L29.389,7.637 Z" id="Shape" fill="#000000"></path>
    </g>
</svg>
