<svg xmlns="http://www.w3.org/2000/svg" xmlns:xlink="http://www.w3.org/1999/xlink" version="1.1" x="0px" y="0px" viewBox="26.622 144.999 87.76 125" enable-background="new 26.622 144.999 87.76 100" xml:space="preserve"><title>Stopwatch by John Caserta from the Noun Project</title><path d="M110.346,172.863l2.864-2.864c1.562-1.562,1.562-4.036,0-5.599l-5.729-5.859c-1.562-1.562-4.167-1.562-5.729,0l-2.734,2.864  c-1.433,1.433-1.562,3.646-0.391,5.208l-3.255,3.125c-6.12-4.947-13.672-8.203-21.875-9.114v-4.427  c1.953-0.261,3.385-1.953,3.385-3.906v-3.256c0-2.213-1.822-4.036-4.036-4.036h-8.203c-2.083,0-3.906,1.823-3.906,4.036v3.256  c0,1.953,1.433,3.646,3.386,3.906v4.557c-21.225,2.344-37.5,20.183-37.5,41.928c0,23.307,18.88,42.317,42.318,42.317  c23.308,0,42.317-19.011,42.317-42.317c0-9.896-3.516-19.011-9.244-26.303l3.255-3.125  C106.83,174.296,109.044,174.166,110.346,172.863z M68.939,235.624c-18.229,0-32.943-14.714-32.943-32.942  c0-18.229,14.713-32.943,32.943-32.943s32.942,14.714,32.942,32.943C101.882,220.91,87.169,235.624,68.939,235.624z"/><path d="M46.413,202.551c0,1.303-1.172,2.475-2.474,2.475c-1.302,0-2.474-1.172-2.474-2.475c0-1.302,1.172-2.474,2.474-2.474  C45.241,200.077,46.413,201.249,46.413,202.551z"/><path d="M49.017,185.363c0-1.302,1.172-2.474,2.474-2.474c1.302,0,2.474,1.172,2.474,2.474c0,1.303-1.172,2.475-2.474,2.475  C50.189,187.838,49.017,186.666,49.017,185.363z"/><path d="M49.147,220.52c0-1.302,1.172-2.474,2.474-2.474c1.303,0,2.475,1.172,2.475,2.474c0,1.303-1.172,2.475-2.475,2.475  C50.319,222.994,49.147,221.822,49.147,220.52z"/><path d="M71.283,193.566l1.692,0.651l14.975-12.63l1.692,1.692l-12.37,15.364c0.912,1.953,1.172,4.297,0.651,6.511  c-1.433,4.948-6.511,7.942-11.589,6.641c-4.947-1.433-7.942-6.511-6.641-11.589C61.127,195.26,66.205,192.265,71.283,193.566z"/><path d="M66.466,177.941c0-1.302,1.172-2.474,2.474-2.474s2.474,1.172,2.474,2.474c0,1.303-1.172,2.475-2.474,2.475  S66.466,179.244,66.466,177.941z"/><path d="M66.466,227.812c0-1.302,1.172-2.474,2.474-2.474s2.474,1.172,2.474,2.474s-1.172,2.474-2.474,2.474  S66.466,229.113,66.466,227.812z"/><path d="M84.044,220.39c0-1.302,1.172-2.474,2.474-2.474s2.474,1.172,2.474,2.474s-1.172,2.474-2.474,2.474  S84.044,221.691,84.044,220.39z"/><path d="M91.596,203.072c0-1.303,1.172-2.475,2.474-2.475c1.303,0,2.475,1.172,2.475,2.475c0,1.302-1.172,2.474-2.475,2.474  C92.768,205.546,91.596,204.374,91.596,203.072z"/></svg>
